General
Complete name                            : Zorba The Greek [1964] 720p BRRip H264 AC3 - CODY.mp4
Format                                   : MPEG-4
Format profile                           : Base Media
Codec ID                                 : isom
File size                                : 2.39 GiB
Duration                                 : 2h 22mn
Overall bit rate mode                    : Variable
Overall bit rate                         : 2 403 Kbps
Encoded date                             : UTC 2012-10-20 13:17:55

Video
ID                                       : 1
Format                                   : AVC
Format/Info                              : Advanced Video Codec
Format profile                           : High@L4.1
Format settings, CABAC                   : Yes
Format settings, ReFrames                : 5 frames
Codec ID                                 : avc1
Codec ID/Info                            : Advanced Video Coding
Duration                                 : 2h 22mn
Bit rate mode                            : Variable
Bit rate                                 : 2 080 Kbps
Maximum bit rate                         : 20.0 Mbps
Width                                    : 1 200 pixels
Height                                   : 720 pixels
Display aspect ratio                     : 1.667
Frame rate mode                          : Constant
Frame rate                               : 23.976 fps
Color space                              : YUV
Chroma subsampling                       : 4:2:0
Bit depth                                : 8 bits
Scan type                                : Progressive
Bits/(Pixel*Frame)                       : 0.100
Stream size                              : 2.07 GiB (87%)
Writing library                          : x264 core 125 r2208 d9d2288
Encoding settings                        : rc=2pass
Color primaries                          : Generic film

Audio
ID                                       : 2
Format                                   : AC-3
Format/Info                              : Audio Coding 3
Mode extension                           : CM (complete main)
Codec ID                                 : ac-3
Duration                                 : 2h 22mn
Bit rate mode                            : Constant
Bit rate                                 : 320 Kbps
Channel(s)                               : 1 channel
Channel positions                        : Front: C
Sampling rate                            : 48.0 KHz
Bit depth                                : 16 bits
Compression mode                         : Lossy
Stream size                              : 325 MiB (13%)

Audio language                           : English, Greek [some parts]

IMDB link:                                 http://www.imdb.com/title/tt0057831/

Subtitles included                       : Romanian

Please seed at least 1,5:1 . This way this torrent has a chance to survive !

Thanks . Enjoy !!		
